# xmcd CD database file
#
# Track frame offsets:
#	150
#	12666
#	23568
#	39698
#	56506
#	72528
#	85144
#	93001
#	104692
#
# Disc length: 1502 seconds
#
# Revision: 2
# Processed by: cddbd v1.5.1PL0 Copyright (c) Steve Scherf et al.
# Submitted via: CDex 1.51
#
DISCID=7105dc09
DTITLE=Johnny Cash - Live 2CD set D 2 Ring of Fire
DYEAR=2004
DGENRE=Country
TTITLE0=Ring Of Fire
TTITLE1=Big River
TTITLE2=City Of New Orleans
TTITLE3=Sunday Morning Coming Down
TTITLE4=A Boy Named Sue
TTITLE5=Peace In The Valley
TTITLE6=The Wall
TTITLE7=Sixteen Tons
TTITLE8=Get Rhythm
EXTD=Live Recordings Set of 2 YEAR: 2004
EXTT0=
EXTT1=
EXTT2=
EXTT3=
EXTT4=
EXTT5=
EXTT6=
EXTT7=
EXTT8=
PLAYORDER=
